<?xml version="1.0" encoding="UTF-8" standalone="no"?>
<!-- Created with Inkscape (http://www.inkscape.org/) -->

<svg
   xmlns:dc="http://purl.org/dc/elements/1.1/"
   xmlns:cc="http://creativecommons.org/ns#"
   xmlns:rdf="http://www.w3.org/1999/02/22-rdf-syntax-ns#"
   xmlns:svg="http://www.w3.org/2000/svg"
   xmlns="http://www.w3.org/2000/svg"
   xmlns:sodipodi="http://sodipodi.sourceforge.net/DTD/sodipodi-0.dtd"
   xmlns:inkscape="http://www.inkscape.org/namespaces/inkscape"
   width="200"
   height="200"
   id="svg2"
   version="1.1"
   inkscape:version="0.48.1 r9760"
   sodipodi:docname="points.svg">
  <defs
     id="defs4" />
  <sodipodi:namedview
     id="base"
     pagecolor="#ffffff"
     bordercolor="#666666"
     borderopacity="1.0"
     inkscape:pageopacity="0.0"
     inkscape:pageshadow="2"
     inkscape:zoom="2.8284271"
     inkscape:cx="39.600598"
     inkscape:cy="106.75616"
     inkscape:document-units="px"
     inkscape:current-layer="layer1"
     showgrid="false"
     inkscape:window-width="1152"
     inkscape:window-height="880"
     inkscape:window-x="220"
     inkscape:window-y="97"
     inkscape:window-maximized="0" />
  <metadata
     id="metadata7">
    <rdf:RDF>
      <cc:Work
         rdf:about="">
        <dc:format>image/svg+xml</dc:format>
        <dc:type
           rdf:resource="http://purl.org/dc/dcmitype/StillImage" />
        <dc:title></dc:title>
      </cc:Work>
    </rdf:RDF>
  </metadata>
  <g
     inkscape:label="レイヤー 1"
     inkscape:groupmode="layer"
     id="layer1"
     transform="translate(0,-852.36218)">
    <path
       sodipodi:type="arc"
       style="color:#000000;fill:#000000;fill-opacity:1;fill-rule:nonzero;stroke:none;stroke-width:1;marker:none;visibility:visible;display:block;overflow:visible;enable-background:accumulate"
       id="path2987"
       sodipodi:cx="50.375"
       sodipodi:cy="55.375"
       sodipodi:rx="3.125"
       sodipodi:ry="3.125"
       d="m 53.5,55.375 c 0,1.72589 -1.39911,3.125 -3.125,3.125 -1.72589,0 -3.125,-1.39911 -3.125,-3.125 0,-1.72589 1.39911,-3.125 3.125,-3.125 1.72589,0 3.125,1.39911 3.125,3.125 z"
       transform="translate(-22.273864,819.48171)" />
    <path
       transform="translate(-3.8890877,829.73476)"
       d="m 53.5,55.375 c 0,1.72589 -1.39911,3.125 -3.125,3.125 -1.72589,0 -3.125,-1.39911 -3.125,-3.125 0,-1.72589 1.39911,-3.125 3.125,-3.125 1.72589,0 3.125,1.39911 3.125,3.125 z"
       sodipodi:ry="3.125"
       sodipodi:rx="3.125"
       sodipodi:cy="55.375"
       sodipodi:cx="50.375"
       id="path3757"
       style="color:#000000;fill:#000000;fill-opacity:1;fill-rule:nonzero;stroke:none;stroke-width:1;marker:none;visibility:visible;display:block;overflow:visible;enable-background:accumulate"
       sodipodi:type="arc" />
    <path
       sodipodi:type="arc"
       style="color:#000000;fill:#000000;fill-opacity:1;fill-rule:nonzero;stroke:none;stroke-width:1;marker:none;visibility:visible;display:block;overflow:visible;enable-background:accumulate"
       id="path3759"
       sodipodi:cx="50.375"
       sodipodi:cy="55.375"
       sodipodi:rx="3.125"
       sodipodi:ry="3.125"
       d="m 53.5,55.375 c 0,1.72589 -1.39911,3.125 -3.125,3.125 -1.72589,0 -3.125,-1.39911 -3.125,-3.125 0,-1.72589 1.39911,-3.125 3.125,-3.125 1.72589,0 3.125,1.39911 3.125,3.125 z"
       transform="translate(34.648232,813.82486)" />
    <path
       transform="translate(75.660425,841.04847)"
       d="m 53.5,55.375 c 0,1.72589 -1.39911,3.125 -3.125,3.125 -1.72589,0 -3.125,-1.39911 -3.125,-3.125 0,-1.72589 1.39911,-3.125 3.125,-3.125 1.72589,0 3.125,1.39911 3.125,3.125 z"
       sodipodi:ry="3.125"
       sodipodi:rx="3.125"
       sodipodi:cy="55.375"
       sodipodi:cx="50.375"
       id="path3761"
       style="color:#000000;fill:#000000;fill-opacity:1;fill-rule:nonzero;stroke:none;stroke-width:1;marker:none;visibility:visible;display:block;overflow:visible;enable-background:accumulate"
       sodipodi:type="arc" />
    <path
       sodipodi:type="arc"
       style="color:#000000;fill:#000000;fill-opacity:1;fill-rule:nonzero;stroke:none;stroke-width:1;marker:none;visibility:visible;display:block;overflow:visible;enable-background:accumulate"
       id="path3763"
       sodipodi:cx="50.375"
       sodipodi:cy="55.375"
       sodipodi:rx="3.125"
       sodipodi:ry="3.125"
       d="m 53.5,55.375 c 0,1.72589 -1.39911,3.125 -3.125,3.125 -1.72589,0 -3.125,-1.39911 -3.125,-3.125 0,-1.72589 1.39911,-3.125 3.125,-3.125 1.72589,0 3.125,1.39911 3.125,3.125 z"
       transform="translate(74.246211,823.01725)" />
    <path
       transform="translate(118.44038,845.29111)"
       d="m 53.5,55.375 c 0,1.72589 -1.39911,3.125 -3.125,3.125 -1.72589,0 -3.125,-1.39911 -3.125,-3.125 0,-1.72589 1.39911,-3.125 3.125,-3.125 1.72589,0 3.125,1.39911 3.125,3.125 z"
       sodipodi:ry="3.125"
       sodipodi:rx="3.125"
       sodipodi:cy="55.375"
       sodipodi:cx="50.375"
       id="path3765"
       style="color:#000000;fill:#000000;fill-opacity:1;fill-rule:nonzero;stroke:none;stroke-width:1;marker:none;visibility:visible;display:block;overflow:visible;enable-background:accumulate"
       sodipodi:type="arc" />
    <path
       sodipodi:type="arc"
       style="color:#000000;fill:#000000;fill-opacity:1;fill-rule:nonzero;stroke:none;stroke-width:1;marker:none;visibility:visible;display:block;overflow:visible;enable-background:accumulate"
       id="path3767"
       sodipodi:cx="50.375"
       sodipodi:cy="55.375"
       sodipodi:rx="3.125"
       sodipodi:ry="3.125"
       d="m 53.5,55.375 c 0,1.72589 -1.39911,3.125 -3.125,3.125 -1.72589,0 -3.125,-1.39911 -3.125,-3.125 0,-1.72589 1.39911,-3.125 3.125,-3.125 1.72589,0 3.125,1.39911 3.125,3.125 z"
       transform="translate(111.36931,873.92893)" />
    <path
       transform="translate(36.769545,864.73654)"
       d="m 53.5,55.375 c 0,1.72589 -1.39911,3.125 -3.125,3.125 -1.72589,0 -3.125,-1.39911 -3.125,-3.125 0,-1.72589 1.39911,-3.125 3.125,-3.125 1.72589,0 3.125,1.39911 3.125,3.125 z"
       sodipodi:ry="3.125"
       sodipodi:rx="3.125"
       sodipodi:cy="55.375"
       sodipodi:cx="50.375"
       id="path3769"
       style="color:#000000;fill:#000000;fill-opacity:1;fill-rule:nonzero;stroke:none;stroke-width:1;marker:none;visibility:visible;display:block;overflow:visible;enable-background:accumulate"
       sodipodi:type="arc" />
    <path
       transform="translate(-16.433874,869.70796)"
       d="m 53.5,55.375 c 0,1.72589 -1.39911,3.125 -3.125,3.125 -1.72589,0 -3.125,-1.39911 -3.125,-3.125 0,-1.72589 1.39911,-3.125 3.125,-3.125 1.72589,0 3.125,1.39911 3.125,3.125 z"
       sodipodi:ry="3.125"
       sodipodi:rx="3.125"
       sodipodi:cy="55.375"
       sodipodi:cx="50.375"
       id="path3769-0"
       style="color:#000000;fill:#000000;fill-opacity:1;fill-rule:nonzero;stroke:none;stroke-width:1;marker:none;visibility:visible;display:block;overflow:visible;enable-background:accumulate"
       sodipodi:type="arc" />
    <path
       transform="translate(-12.898341,846.72699)"
       d="m 53.5,55.375 c 0,1.72589 -1.39911,3.125 -3.125,3.125 -1.72589,0 -3.125,-1.39911 -3.125,-3.125 0,-1.72589 1.39911,-3.125 3.125,-3.125 1.72589,0 3.125,1.39911 3.125,3.125 z"
       sodipodi:ry="3.125"
       sodipodi:rx="3.125"
       sodipodi:cy="55.375"
       sodipodi:cx="50.375"
       id="path3769-8"
       style="color:#000000;fill:#000000;fill-opacity:1;fill-rule:nonzero;stroke:none;stroke-width:1;marker:none;visibility:visible;display:block;overflow:visible;enable-background:accumulate"
       sodipodi:type="arc" />
    <path
       transform="translate(17.507251,855.21227)"
       d="m 53.5,55.375 c 0,1.72589 -1.39911,3.125 -3.125,3.125 -1.72589,0 -3.125,-1.39911 -3.125,-3.125 0,-1.72589 1.39911,-3.125 3.125,-3.125 1.72589,0 3.125,1.39911 3.125,3.125 z"
       sodipodi:ry="3.125"
       sodipodi:rx="3.125"
       sodipodi:cy="55.375"
       sodipodi:cx="50.375"
       id="path3769-5"
       style="color:#000000;fill:#000000;fill-opacity:1;fill-rule:nonzero;stroke:none;stroke-width:1;marker:none;visibility:visible;display:block;overflow:visible;enable-background:accumulate"
       sodipodi:type="arc" />
    <path
       transform="translate(4.0722222,901.88132)"
       d="m 53.5,55.375 c 0,1.72589 -1.39911,3.125 -3.125,3.125 -1.72589,0 -3.125,-1.39911 -3.125,-3.125 0,-1.72589 1.39911,-3.125 3.125,-3.125 1.72589,0 3.125,1.39911 3.125,3.125 z"
       sodipodi:ry="3.125"
       sodipodi:rx="3.125"
       sodipodi:cy="55.375"
       sodipodi:cx="50.375"
       id="path3769-06"
       style="color:#000000;fill:#000000;fill-opacity:1;fill-rule:nonzero;stroke:none;stroke-width:1;marker:none;visibility:visible;display:block;overflow:visible;enable-background:accumulate"
       sodipodi:type="arc" />
    <path
       transform="translate(-24.212049,937.59021)"
       d="m 53.5,55.375 c 0,1.72589 -1.39911,3.125 -3.125,3.125 -1.72589,0 -3.125,-1.39911 -3.125,-3.125 0,-1.72589 1.39911,-3.125 3.125,-3.125 1.72589,0 3.125,1.39911 3.125,3.125 z"
       sodipodi:ry="3.125"
       sodipodi:rx="3.125"
       sodipodi:cy="55.375"
       sodipodi:cx="50.375"
       id="path3769-4"
       style="color:#000000;fill:#000000;fill-opacity:1;fill-rule:nonzero;stroke:none;stroke-width:1;marker:none;visibility:visible;display:block;overflow:visible;enable-background:accumulate"
       sodipodi:type="arc" />
    <path
       transform="translate(-33.050884,896.57802)"
       d="m 53.5,55.375 c 0,1.72589 -1.39911,3.125 -3.125,3.125 -1.72589,0 -3.125,-1.39911 -3.125,-3.125 0,-1.72589 1.39911,-3.125 3.125,-3.125 1.72589,0 3.125,1.39911 3.125,3.125 z"
       sodipodi:ry="3.125"
       sodipodi:rx="3.125"
       sodipodi:cy="55.375"
       sodipodi:cx="50.375"
       id="path3769-6"
       style="color:#000000;fill:#000000;fill-opacity:1;fill-rule:nonzero;stroke:none;stroke-width:1;marker:none;visibility:visible;display:block;overflow:visible;enable-background:accumulate"
       sodipodi:type="arc" />
    <path
       transform="translate(40.134668,951.73235)"
       d="m 53.5,55.375 c 0,1.72589 -1.39911,3.125 -3.125,3.125 -1.72589,0 -3.125,-1.39911 -3.125,-3.125 0,-1.72589 1.39911,-3.125 3.125,-3.125 1.72589,0 3.125,1.39911 3.125,3.125 z"
       sodipodi:ry="3.125"
       sodipodi:rx="3.125"
       sodipodi:cy="55.375"
       sodipodi:cx="50.375"
       id="path3769-2"
       style="color:#000000;fill:#000000;fill-opacity:1;fill-rule:nonzero;stroke:none;stroke-width:1;marker:none;visibility:visible;display:block;overflow:visible;enable-background:accumulate"
       sodipodi:type="arc" />
    <path
       transform="translate(2.3044552,971.17778)"
       d="m 53.5,55.375 c 0,1.72589 -1.39911,3.125 -3.125,3.125 -1.72589,0 -3.125,-1.39911 -3.125,-3.125 0,-1.72589 1.39911,-3.125 3.125,-3.125 1.72589,0 3.125,1.39911 3.125,3.125 z"
       sodipodi:ry="3.125"
       sodipodi:rx="3.125"
       sodipodi:cy="55.375"
       sodipodi:cx="50.375"
       id="path3769-58"
       style="color:#000000;fill:#000000;fill-opacity:1;fill-rule:nonzero;stroke:none;stroke-width:1;marker:none;visibility:visible;display:block;overflow:visible;enable-background:accumulate"
       sodipodi:type="arc" />
    <path
       transform="translate(50.387716,913.90213)"
       d="m 53.5,55.375 c 0,1.72589 -1.39911,3.125 -3.125,3.125 -1.72589,0 -3.125,-1.39911 -3.125,-3.125 0,-1.72589 1.39911,-3.125 3.125,-3.125 1.72589,0 3.125,1.39911 3.125,3.125 z"
       sodipodi:ry="3.125"
       sodipodi:rx="3.125"
       sodipodi:cy="55.375"
       sodipodi:cx="50.375"
       id="path3769-62"
       style="color:#000000;fill:#000000;fill-opacity:1;fill-rule:nonzero;stroke:none;stroke-width:1;marker:none;visibility:visible;display:block;overflow:visible;enable-background:accumulate"
       sodipodi:type="arc" />
    <path
       transform="translate(78.318434,960.21763)"
       d="m 53.5,55.375 c 0,1.72589 -1.39911,3.125 -3.125,3.125 -1.72589,0 -3.125,-1.39911 -3.125,-3.125 0,-1.72589 1.39911,-3.125 3.125,-3.125 1.72589,0 3.125,1.39911 3.125,3.125 z"
       sodipodi:ry="3.125"
       sodipodi:rx="3.125"
       sodipodi:cy="55.375"
       sodipodi:cx="50.375"
       id="path3769-84"
       style="color:#000000;fill:#000000;fill-opacity:1;fill-rule:nonzero;stroke:none;stroke-width:1;marker:none;visibility:visible;display:block;overflow:visible;enable-background:accumulate"
       sodipodi:type="arc" />
    <path
       transform="translate(117.56286,973.65266)"
       d="m 53.5,55.375 c 0,1.72589 -1.39911,3.125 -3.125,3.125 -1.72589,0 -3.125,-1.39911 -3.125,-3.125 0,-1.72589 1.39911,-3.125 3.125,-3.125 1.72589,0 3.125,1.39911 3.125,3.125 z"
       sodipodi:ry="3.125"
       sodipodi:rx="3.125"
       sodipodi:cy="55.375"
       sodipodi:cx="50.375"
       id="path3769-7"
       style="color:#000000;fill:#000000;fill-opacity:1;fill-rule:nonzero;stroke:none;stroke-width:1;marker:none;visibility:visible;display:block;overflow:visible;enable-background:accumulate"
       sodipodi:type="arc" />
    <path
       transform="translate(126.04814,936.176)"
       d="m 53.5,55.375 c 0,1.72589 -1.39911,3.125 -3.125,3.125 -1.72589,0 -3.125,-1.39911 -3.125,-3.125 0,-1.72589 1.39911,-3.125 3.125,-3.125 1.72589,0 3.125,1.39911 3.125,3.125 z"
       sodipodi:ry="3.125"
       sodipodi:rx="3.125"
       sodipodi:cy="55.375"
       sodipodi:cx="50.375"
       id="path3769-24"
       style="color:#000000;fill:#000000;fill-opacity:1;fill-rule:nonzero;stroke:none;stroke-width:1;marker:none;visibility:visible;display:block;overflow:visible;enable-background:accumulate"
       sodipodi:type="arc" />
    <path
       transform="translate(74.429347,925.92295)"
       d="m 53.5,55.375 c 0,1.72589 -1.39911,3.125 -3.125,3.125 -1.72589,0 -3.125,-1.39911 -3.125,-3.125 0,-1.72589 1.39911,-3.125 3.125,-3.125 1.72589,0 3.125,1.39911 3.125,3.125 z"
       sodipodi:ry="3.125"
       sodipodi:rx="3.125"
       sodipodi:cy="55.375"
       sodipodi:cx="50.375"
       id="path3769-062"
       style="color:#000000;fill:#000000;fill-opacity:1;fill-rule:nonzero;stroke:none;stroke-width:1;marker:none;visibility:visible;display:block;overflow:visible;enable-background:accumulate"
       sodipodi:type="arc" />
    <path
       transform="translate(68.418939,882.43588)"
       d="m 53.5,55.375 c 0,1.72589 -1.39911,3.125 -3.125,3.125 -1.72589,0 -3.125,-1.39911 -3.125,-3.125 0,-1.72589 1.39911,-3.125 3.125,-3.125 1.72589,0 3.125,1.39911 3.125,3.125 z"
       sodipodi:ry="3.125"
       sodipodi:rx="3.125"
       sodipodi:cy="55.375"
       sodipodi:cx="50.375"
       id="path3769-9"
       style="color:#000000;fill:#000000;fill-opacity:1;fill-rule:nonzero;stroke:none;stroke-width:1;marker:none;visibility:visible;display:block;overflow:visible;enable-background:accumulate"
       sodipodi:type="arc" />
    <path
       transform="translate(114.73443,905.77041)"
       d="m 53.5,55.375 c 0,1.72589 -1.39911,3.125 -3.125,3.125 -1.72589,0 -3.125,-1.39911 -3.125,-3.125 0,-1.72589 1.39911,-3.125 3.125,-3.125 1.72589,0 3.125,1.39911 3.125,3.125 z"
       sodipodi:ry="3.125"
       sodipodi:rx="3.125"
       sodipodi:cy="55.375"
       sodipodi:cx="50.375"
       id="path3769-90"
       style="color:#000000;fill:#000000;fill-opacity:1;fill-rule:nonzero;stroke:none;stroke-width:1;marker:none;visibility:visible;display:block;overflow:visible;enable-background:accumulate"
       sodipodi:type="arc" />
    <path
       transform="translate(105.18849,823.39247)"
       d="m 53.5,55.375 c 0,1.72589 -1.39911,3.125 -3.125,3.125 -1.72589,0 -3.125,-1.39911 -3.125,-3.125 0,-1.72589 1.39911,-3.125 3.125,-3.125 1.72589,0 3.125,1.39911 3.125,3.125 z"
       sodipodi:ry="3.125"
       sodipodi:rx="3.125"
       sodipodi:cy="55.375"
       sodipodi:cx="50.375"
       id="path3769-81"
       style="color:#000000;fill:#000000;fill-opacity:1;fill-rule:nonzero;stroke:none;stroke-width:1;marker:none;visibility:visible;display:block;overflow:visible;enable-background:accumulate"
       sodipodi:type="arc" />
    <path
       transform="translate(33.770708,902.23486)"
       d="m 53.5,55.375 a 3.125,3.125 0 1 1 -6.25,0 3.125,3.125 0 1 1 6.25,0 z"
       sodipodi:ry="3.125"
       sodipodi:rx="3.125"
       sodipodi:cy="55.375"
       sodipodi:cx="50.375"
       id="path3769-06-8"
       style="color:#000000;fill:#ff0000;fill-opacity:1;fill-rule:nonzero;stroke:none;stroke-width:1;marker:none;visibility:visible;display:block;overflow:visible;enable-background:accumulate"
       sodipodi:type="arc" />
    <text
       xml:space="preserve"
       style="font-size:12px;font-style:normal;font-variant:normal;font-weight:normal;font-stretch:normal;line-height:125%;letter-spacing:0px;word-spacing:0px;fill:#ff0000;fill-opacity:1;stroke:none;font-family:Sans;-inkscape-font-specification:Sans"
       x="100.76272"
       y="964.68091"
       id="text5413"
       sodipodi:linespacing="125%"><tspan
         sodipodi:role="line"
         id="tspan5415"
         x="100.76272"
         y="964.68091">1</tspan></text>
    <text
       xml:space="preserve"
       style="font-size:12px;font-style:normal;font-variant:normal;font-weight:normal;font-stretch:normal;line-height:125%;letter-spacing:0px;word-spacing:0px;fill:#ff0000;fill-opacity:1;stroke:none;font-family:Sans;-inkscape-font-specification:Sans"
       x="54.05365"
       y="951.58728"
       id="text5413-3"
       sodipodi:linespacing="125%"><tspan
         sodipodi:role="line"
         id="tspan5415-4"
         x="54.05365"
         y="951.58728">2</tspan></text>
    <text
       xml:space="preserve"
       style="font-size:12px;font-style:normal;font-variant:normal;font-weight:normal;font-stretch:normal;line-height:125%;letter-spacing:0px;word-spacing:0px;fill:#ff0000;fill-opacity:1;stroke:none;font-family:Sans;-inkscape-font-specification:Sans"
       x="86.227005"
       y="934.26318"
       id="text5413-8"
       sodipodi:linespacing="125%"><tspan
         sodipodi:role="line"
         id="tspan5415-9"
         x="86.227005"
         y="934.26318">3</tspan></text>
    <text
       xml:space="preserve"
       style="font-size:12px;font-style:normal;font-variant:normal;font-weight:normal;font-stretch:normal;line-height:125%;letter-spacing:0px;word-spacing:0px;fill:#ff0000;fill-opacity:1;stroke:none;font-family:Sans;-inkscape-font-specification:Sans"
       x="109.65664"
       y="933.93964"
       id="text5413-8-1"
       sodipodi:linespacing="125%"><tspan
         sodipodi:role="line"
         id="tspan5415-9-3"
         x="109.65664"
         y="933.93964">4</tspan></text>
    <text
       xml:space="preserve"
       style="font-size:12px;font-style:normal;font-variant:normal;font-weight:normal;font-stretch:normal;line-height:125%;letter-spacing:0px;word-spacing:0px;fill:#ff0000;fill-opacity:1;stroke:none;font-family:Sans;-inkscape-font-specification:Sans"
       x="121.67745"
       y="974.95178"
       id="text5413-8-0"
       sodipodi:linespacing="125%"><tspan
         sodipodi:role="line"
         id="tspan5415-9-6"
         x="121.67745"
         y="974.95178">5</tspan></text>
    <text
       xml:space="preserve"
       style="font-size:12px;font-style:normal;font-variant:normal;font-weight:normal;font-stretch:normal;line-height:125%;letter-spacing:0px;word-spacing:0px;fill:#ff0000;fill-opacity:1;stroke:none;font-family:Sans;-inkscape-font-specification:Sans"
       x="85.153458"
       y="1001.0187"
       id="text5413-8-0-4"
       sodipodi:linespacing="125%"><tspan
         sodipodi:role="line"
         id="tspan5415-9-6-7"
         x="85.153458"
         y="1001.0187">6</tspan></text>
    <text
       xml:space="preserve"
       style="font-size:12px;font-style:normal;font-variant:normal;font-weight:normal;font-stretch:normal;line-height:125%;letter-spacing:0px;word-spacing:0px;fill:#ff0000;fill-opacity:1;stroke:none;font-family:Sans;-inkscape-font-specification:Sans"
       x="57.929844"
       y="923.94409"
       id="text5413-8-0-6"
       sodipodi:linespacing="125%"><tspan
         sodipodi:role="line"
         id="tspan5415-9-6-3"
         x="57.929844"
         y="923.94409">7</tspan></text>
  </g>
</svg>
