<?xml version="1.0" encoding="utf-8" standalone="no"?>
<!DOCTYPE svg PUBLIC "-//W3C//DTD SVG 1.1//EN"
  "http://www.w3.org/Graphics/SVG/1.1/DTD/svg11.dtd">
<svg xmlns:xlink="http://www.w3.org/1999/xlink" width="460.8pt" height="345.6pt" viewBox="0 0 460.8 345.6" xmlns="http://www.w3.org/2000/svg" version="1.1">
 <metadata>
  <rdf:RDF xmlns:dc="http://purl.org/dc/elements/1.1/" xmlns:cc="http://creativecommons.org/ns#" xmlns:rdf="http://www.w3.org/1999/02/22-rdf-syntax-ns#">
   <cc:Work>
    <dc:type rdf:resource="http://purl.org/dc/dcmitype/StillImage"/>
    <dc:date>2023-09-04T16:09:08.230281</dc:date>
    <dc:format>image/svg+xml</dc:format>
    <dc:creator>
     <cc:Agent>
      <dc:title>Matplotlib v3.6.3, https://matplotlib.org/</dc:title>
     </cc:Agent>
    </dc:creator>
   </cc:Work>
  </rdf:RDF>
 </metadata>
 <defs>
  <style type="text/css">*{stroke-linejoin: round; stroke-linecap: butt}</style>
 </defs>
 <g id="figure_1">
  <g id="patch_1">
   <path d="M 0 345.6 
L 460.8 345.6 
L 460.8 0 
L 0 0 
z
" style="fill: #ffffff"/>
  </g>
  <g id="axes_1">
   <g id="patch_2">
    <path d="M 57.6 307.584 
L 414.72 307.584 
L 414.72 41.472 
L 57.6 41.472 
z
" style="fill: #ffffff"/>
   </g>
   <g id="PathCollection_1">
    <defs>
     <path id="C0_0_e0176c1f64" d="M 0 3 
C 0.795609 3 1.55874 2.683901 2.12132 2.12132 
C 2.683901 1.55874 3 0.795609 3 -0 
C 3 -0.795609 2.683901 -1.55874 2.12132 -2.12132 
C 1.55874 -2.683901 0.795609 -3 0 -3 
C -0.795609 -3 -1.55874 -2.683901 -2.12132 -2.12132 
C -2.683901 -1.55874 -3 -0.795609 -3 0 
C -3 0.795609 -2.683901 1.55874 -2.12132 2.12132 
C -1.55874 2.683901 -0.795609 3 0 3 
z
"/>
    </defs>
    <g clip-path="url(#pdc83748d13)">
     <use xlink:href="#C0_0_e0176c1f64" x="74.088035" y="291.931327" style="fill: #1f77b4; stroke: #ffffff; stroke-width: 0.48"/>
    </g>
    <g clip-path="url(#pdc83748d13)">
     <use xlink:href="#C0_0_e0176c1f64" x="398.487273" y="281.385203" style="fill: #ff7f0e; stroke: #ffffff; stroke-width: 0.48"/>
    </g>
    <g clip-path="url(#pdc83748d13)">
     <use xlink:href="#C0_0_e0176c1f64" x="87.631558" y="291.907829" style="fill: #2ca02c; stroke: #ffffff; stroke-width: 0.48"/>
    </g>
    <g clip-path="url(#pdc83748d13)">
     <use xlink:href="#C0_0_e0176c1f64" x="88.804351" y="291.905693" style="fill: #d62728; stroke: #ffffff; stroke-width: 0.48"/>
    </g>
    <g clip-path="url(#pdc83748d13)">
     <use xlink:href="#C0_0_e0176c1f64" x="89.36727" y="295.488" style="fill: #9467bd; stroke: #ffffff; stroke-width: 0.48"/>
    </g>
    <g clip-path="url(#pdc83748d13)">
     <use xlink:href="#C0_0_e0176c1f64" x="75.115125" y="287.690021" style="fill: #8c564b; stroke: #ffffff; stroke-width: 0.48"/>
    </g>
    <g clip-path="url(#pdc83748d13)">
     <use xlink:href="#C0_0_e0176c1f64" x="85.902163" y="53.568" style="fill: #e377c2; stroke: #ffffff; stroke-width: 0.48"/>
    </g>
    <g clip-path="url(#pdc83748d13)">
     <use xlink:href="#C0_0_e0176c1f64" x="74.082594" y="287.623088" style="fill: #7f7f7f; stroke: #ffffff; stroke-width: 0.48"/>
    </g>
    <g clip-path="url(#pdc83748d13)">
     <use xlink:href="#C0_0_e0176c1f64" x="74.012871" y="287.58357" style="fill: #bcbd22; stroke: #ffffff; stroke-width: 0.48"/>
    </g>
    <g clip-path="url(#pdc83748d13)">
     <use xlink:href="#C0_0_e0176c1f64" x="73.832727" y="288.812206" style="fill: #17becf; stroke: #ffffff; stroke-width: 0.48"/>
    </g>
   </g>
   <g id="PathCollection_2"/>
   <g id="PathCollection_3"/>
   <g id="PathCollection_4"/>
   <g id="PathCollection_5"/>
   <g id="PathCollection_6"/>
   <g id="PathCollection_7"/>
   <g id="PathCollection_8"/>
   <g id="PathCollection_9"/>
   <g id="PathCollection_10"/>
   <g id="PathCollection_11"/>
   <g id="matplotlib.axis_1">
    <g id="xtick_1">
     <g id="line2d_1">
      <defs>
       <path id="md7b9b5e331" d="M 0 0 
L 0 3.5 
" style="stroke: #000000; stroke-width: 0.8"/>
      </defs>
      <g>
       <use xlink:href="#md7b9b5e331" x="71.013539" y="307.584" style="stroke: #000000; stroke-width: 0.8"/>
      </g>
     </g>
     <g id="text_1">
      <!-- 0 -->
      <g transform="translate(67.832289 322.182437) scale(0.1 -0.1)">
       <defs>
        <path id="DejaVuSans-30" d="M 2034 4250 
Q 1547 4250 1301 3770 
Q 1056 3291 1056 2328 
Q 1056 1369 1301 889 
Q 1547 409 2034 409 
Q 2525 409 2770 889 
Q 3016 1369 3016 2328 
Q 3016 3291 2770 3770 
Q 2525 4250 2034 4250 
z
M 2034 4750 
Q 2819 4750 3233 4129 
Q 3647 3509 3647 2328 
Q 3647 1150 3233 529 
Q 2819 -91 2034 -91 
Q 1250 -91 836 529 
Q 422 1150 422 2328 
Q 422 3509 836 4129 
Q 1250 4750 2034 4750 
z
" transform="scale(0.015625)"/>
       </defs>
       <use xlink:href="#DejaVuSans-30"/>
      </g>
     </g>
    </g>
    <g id="xtick_2">
     <g id="line2d_2">
      <g>
       <use xlink:href="#md7b9b5e331" x="118.159128" y="307.584" style="stroke: #000000; stroke-width: 0.8"/>
      </g>
     </g>
     <g id="text_2">
      <!-- 1 -->
      <g transform="translate(114.977878 322.182437) scale(0.1 -0.1)">
       <defs>
        <path id="DejaVuSans-31" d="M 794 531 
L 1825 531 
L 1825 4091 
L 703 3866 
L 703 4441 
L 1819 4666 
L 2450 4666 
L 2450 531 
L 3481 531 
L 3481 0 
L 794 0 
L 794 531 
z
" transform="scale(0.015625)"/>
       </defs>
       <use xlink:href="#DejaVuSans-31"/>
      </g>
     </g>
    </g>
    <g id="xtick_3">
     <g id="line2d_3">
      <g>
       <use xlink:href="#md7b9b5e331" x="165.304717" y="307.584" style="stroke: #000000; stroke-width: 0.8"/>
      </g>
     </g>
     <g id="text_3">
      <!-- 2 -->
      <g transform="translate(162.123467 322.182437) scale(0.1 -0.1)">
       <defs>
        <path id="DejaVuSans-32" d="M 1228 531 
L 3431 531 
L 3431 0 
L 469 0 
L 469 531 
Q 828 903 1448 1529 
Q 2069 2156 2228 2338 
Q 2531 2678 2651 2914 
Q 2772 3150 2772 3378 
Q 2772 3750 2511 3984 
Q 2250 4219 1831 4219 
Q 1534 4219 1204 4116 
Q 875 4013 500 3803 
L 500 4441 
Q 881 4594 1212 4672 
Q 1544 4750 1819 4750 
Q 2544 4750 2975 4387 
Q 3406 4025 3406 3419 
Q 3406 3131 3298 2873 
Q 3191 2616 2906 2266 
Q 2828 2175 2409 1742 
Q 1991 1309 1228 531 
z
" transform="scale(0.015625)"/>
       </defs>
       <use xlink:href="#DejaVuSans-32"/>
      </g>
     </g>
    </g>
    <g id="xtick_4">
     <g id="line2d_4">
      <g>
       <use xlink:href="#md7b9b5e331" x="212.450306" y="307.584" style="stroke: #000000; stroke-width: 0.8"/>
      </g>
     </g>
     <g id="text_4">
      <!-- 3 -->
      <g transform="translate(209.269056 322.182437) scale(0.1 -0.1)">
       <defs>
        <path id="DejaVuSans-33" d="M 2597 2516 
Q 3050 2419 3304 2112 
Q 3559 1806 3559 1356 
Q 3559 666 3084 287 
Q 2609 -91 1734 -91 
Q 1441 -91 1130 -33 
Q 819 25 488 141 
L 488 750 
Q 750 597 1062 519 
Q 1375 441 1716 441 
Q 2309 441 2620 675 
Q 2931 909 2931 1356 
Q 2931 1769 2642 2001 
Q 2353 2234 1838 2234 
L 1294 2234 
L 1294 2753 
L 1863 2753 
Q 2328 2753 2575 2939 
Q 2822 3125 2822 3475 
Q 2822 3834 2567 4026 
Q 2313 4219 1838 4219 
Q 1578 4219 1281 4162 
Q 984 4106 628 3988 
L 628 4550 
Q 988 4650 1302 4700 
Q 1616 4750 1894 4750 
Q 2613 4750 3031 4423 
Q 3450 4097 3450 3541 
Q 3450 3153 3228 2886 
Q 3006 2619 2597 2516 
z
" transform="scale(0.015625)"/>
       </defs>
       <use xlink:href="#DejaVuSans-33"/>
      </g>
     </g>
    </g>
    <g id="xtick_5">
     <g id="line2d_5">
      <g>
       <use xlink:href="#md7b9b5e331" x="259.595896" y="307.584" style="stroke: #000000; stroke-width: 0.8"/>
      </g>
     </g>
     <g id="text_5">
      <!-- 4 -->
      <g transform="translate(256.414646 322.182437) scale(0.1 -0.1)">
       <defs>
        <path id="DejaVuSans-34" d="M 2419 4116 
L 825 1625 
L 2419 1625 
L 2419 4116 
z
M 2253 4666 
L 3047 4666 
L 3047 1625 
L 3713 1625 
L 3713 1100 
L 3047 1100 
L 3047 0 
L 2419 0 
L 2419 1100 
L 313 1100 
L 313 1709 
L 2253 4666 
z
" transform="scale(0.015625)"/>
       </defs>
       <use xlink:href="#DejaVuSans-34"/>
      </g>
     </g>
    </g>
    <g id="xtick_6">
     <g id="line2d_6">
      <g>
       <use xlink:href="#md7b9b5e331" x="306.741485" y="307.584" style="stroke: #000000; stroke-width: 0.8"/>
      </g>
     </g>
     <g id="text_6">
      <!-- 5 -->
      <g transform="translate(303.560235 322.182437) scale(0.1 -0.1)">
       <defs>
        <path id="DejaVuSans-35" d="M 691 4666 
L 3169 4666 
L 3169 4134 
L 1269 4134 
L 1269 2991 
Q 1406 3038 1543 3061 
Q 1681 3084 1819 3084 
Q 2600 3084 3056 2656 
Q 3513 2228 3513 1497 
Q 3513 744 3044 326 
Q 2575 -91 1722 -91 
Q 1428 -91 1123 -41 
Q 819 9 494 109 
L 494 744 
Q 775 591 1075 516 
Q 1375 441 1709 441 
Q 2250 441 2565 725 
Q 2881 1009 2881 1497 
Q 2881 1984 2565 2268 
Q 2250 2553 1709 2553 
Q 1456 2553 1204 2497 
Q 953 2441 691 2322 
L 691 4666 
z
" transform="scale(0.015625)"/>
       </defs>
       <use xlink:href="#DejaVuSans-35"/>
      </g>
     </g>
    </g>
    <g id="xtick_7">
     <g id="line2d_7">
      <g>
       <use xlink:href="#md7b9b5e331" x="353.887074" y="307.584" style="stroke: #000000; stroke-width: 0.8"/>
      </g>
     </g>
     <g id="text_7">
      <!-- 6 -->
      <g transform="translate(350.705824 322.182437) scale(0.1 -0.1)">
       <defs>
        <path id="DejaVuSans-36" d="M 2113 2584 
Q 1688 2584 1439 2293 
Q 1191 2003 1191 1497 
Q 1191 994 1439 701 
Q 1688 409 2113 409 
Q 2538 409 2786 701 
Q 3034 994 3034 1497 
Q 3034 2003 2786 2293 
Q 2538 2584 2113 2584 
z
M 3366 4563 
L 3366 3988 
Q 3128 4100 2886 4159 
Q 2644 4219 2406 4219 
Q 1781 4219 1451 3797 
Q 1122 3375 1075 2522 
Q 1259 2794 1537 2939 
Q 1816 3084 2150 3084 
Q 2853 3084 3261 2657 
Q 3669 2231 3669 1497 
Q 3669 778 3244 343 
Q 2819 -91 2113 -91 
Q 1303 -91 875 529 
Q 447 1150 447 2328 
Q 447 3434 972 4092 
Q 1497 4750 2381 4750 
Q 2619 4750 2861 4703 
Q 3103 4656 3366 4563 
z
" transform="scale(0.015625)"/>
       </defs>
       <use xlink:href="#DejaVuSans-36"/>
      </g>
     </g>
    </g>
    <g id="xtick_8">
     <g id="line2d_8">
      <g>
       <use xlink:href="#md7b9b5e331" x="401.032663" y="307.584" style="stroke: #000000; stroke-width: 0.8"/>
      </g>
     </g>
     <g id="text_8">
      <!-- 7 -->
      <g transform="translate(397.851413 322.182437) scale(0.1 -0.1)">
       <defs>
        <path id="DejaVuSans-37" d="M 525 4666 
L 3525 4666 
L 3525 4397 
L 1831 0 
L 1172 0 
L 2766 4134 
L 525 4134 
L 525 4666 
z
" transform="scale(0.015625)"/>
       </defs>
       <use xlink:href="#DejaVuSans-37"/>
      </g>
     </g>
    </g>
    <g id="text_9">
     <!-- Compress time (sec, smaller is better) -->
     <g transform="translate(140.427188 335.860562) scale(0.1 -0.1)">
      <defs>
       <path id="DejaVuSans-43" d="M 4122 4306 
L 4122 3641 
Q 3803 3938 3442 4084 
Q 3081 4231 2675 4231 
Q 1875 4231 1450 3742 
Q 1025 3253 1025 2328 
Q 1025 1406 1450 917 
Q 1875 428 2675 428 
Q 3081 428 3442 575 
Q 3803 722 4122 1019 
L 4122 359 
Q 3791 134 3420 21 
Q 3050 -91 2638 -91 
Q 1578 -91 968 557 
Q 359 1206 359 2328 
Q 359 3453 968 4101 
Q 1578 4750 2638 4750 
Q 3056 4750 3426 4639 
Q 3797 4528 4122 4306 
z
" transform="scale(0.015625)"/>
       <path id="DejaVuSans-6f" d="M 1959 3097 
Q 1497 3097 1228 2736 
Q 959 2375 959 1747 
Q 959 1119 1226 758 
Q 1494 397 1959 397 
Q 2419 397 2687 759 
Q 2956 1122 2956 1747 
Q 2956 2369 2687 2733 
Q 2419 3097 1959 3097 
z
M 1959 3584 
Q 2709 3584 3137 3096 
Q 3566 2609 3566 1747 
Q 3566 888 3137 398 
Q 2709 -91 1959 -91 
Q 1206 -91 779 398 
Q 353 888 353 1747 
Q 353 2609 779 3096 
Q 1206 3584 1959 3584 
z
" transform="scale(0.015625)"/>
       <path id="DejaVuSans-6d" d="M 3328 2828 
Q 3544 3216 3844 3400 
Q 4144 3584 4550 3584 
Q 5097 3584 5394 3201 
Q 5691 2819 5691 2113 
L 5691 0 
L 5113 0 
L 5113 2094 
Q 5113 2597 4934 2840 
Q 4756 3084 4391 3084 
Q 3944 3084 3684 2787 
Q 3425 2491 3425 1978 
L 3425 0 
L 2847 0 
L 2847 2094 
Q 2847 2600 2669 2842 
Q 2491 3084 2119 3084 
Q 1678 3084 1418 2786 
Q 1159 2488 1159 1978 
L 1159 0 
L 581 0 
L 581 3500 
L 1159 3500 
L 1159 2956 
Q 1356 3278 1631 3431 
Q 1906 3584 2284 3584 
Q 2666 3584 2933 3390 
Q 3200 3197 3328 2828 
z
" transform="scale(0.015625)"/>
       <path id="DejaVuSans-70" d="M 1159 525 
L 1159 -1331 
L 581 -1331 
L 581 3500 
L 1159 3500 
L 1159 2969 
Q 1341 3281 1617 3432 
Q 1894 3584 2278 3584 
Q 2916 3584 3314 3078 
Q 3713 2572 3713 1747 
Q 3713 922 3314 415 
Q 2916 -91 2278 -91 
Q 1894 -91 1617 61 
Q 1341 213 1159 525 
z
M 3116 1747 
Q 3116 2381 2855 2742 
Q 2594 3103 2138 3103 
Q 1681 3103 1420 2742 
Q 1159 2381 1159 1747 
Q 1159 1113 1420 752 
Q 1681 391 2138 391 
Q 2594 391 2855 752 
Q 3116 1113 3116 1747 
z
" transform="scale(0.015625)"/>
       <path id="DejaVuSans-72" d="M 2631 2963 
Q 2534 3019 2420 3045 
Q 2306 3072 2169 3072 
Q 1681 3072 1420 2755 
Q 1159 2438 1159 1844 
L 1159 0 
L 581 0 
L 581 3500 
L 1159 3500 
L 1159 2956 
Q 1341 3275 1631 3429 
Q 1922 3584 2338 3584 
Q 2397 3584 2469 3576 
Q 2541 3569 2628 3553 
L 2631 2963 
z
" transform="scale(0.015625)"/>
       <path id="DejaVuSans-65" d="M 3597 1894 
L 3597 1613 
L 953 1613 
Q 991 1019 1311 708 
Q 1631 397 2203 397 
Q 2534 397 2845 478 
Q 3156 559 3463 722 
L 3463 178 
Q 3153 47 2828 -22 
Q 2503 -91 2169 -91 
Q 1331 -91 842 396 
Q 353 884 353 1716 
Q 353 2575 817 3079 
Q 1281 3584 2069 3584 
Q 2775 3584 3186 3129 
Q 3597 2675 3597 1894 
z
M 3022 2063 
Q 3016 2534 2758 2815 
Q 2500 3097 2075 3097 
Q 1594 3097 1305 2825 
Q 1016 2553 972 2059 
L 3022 2063 
z
" transform="scale(0.015625)"/>
       <path id="DejaVuSans-73" d="M 2834 3397 
L 2834 2853 
Q 2591 2978 2328 3040 
Q 2066 3103 1784 3103 
Q 1356 3103 1142 2972 
Q 928 2841 928 2578 
Q 928 2378 1081 2264 
Q 1234 2150 1697 2047 
L 1894 2003 
Q 2506 1872 2764 1633 
Q 3022 1394 3022 966 
Q 3022 478 2636 193 
Q 2250 -91 1575 -91 
Q 1294 -91 989 -36 
Q 684 19 347 128 
L 347 722 
Q 666 556 975 473 
Q 1284 391 1588 391 
Q 1994 391 2212 530 
Q 2431 669 2431 922 
Q 2431 1156 2273 1281 
Q 2116 1406 1581 1522 
L 1381 1569 
Q 847 1681 609 1914 
Q 372 2147 372 2553 
Q 372 3047 722 3315 
Q 1072 3584 1716 3584 
Q 2034 3584 2315 3537 
Q 2597 3491 2834 3397 
z
" transform="scale(0.015625)"/>
       <path id="DejaVuSans-20" transform="scale(0.015625)"/>
       <path id="DejaVuSans-74" d="M 1172 4494 
L 1172 3500 
L 2356 3500 
L 2356 3053 
L 1172 3053 
L 1172 1153 
Q 1172 725 1289 603 
Q 1406 481 1766 481 
L 2356 481 
L 2356 0 
L 1766 0 
Q 1100 0 847 248 
Q 594 497 594 1153 
L 594 3053 
L 172 3053 
L 172 3500 
L 594 3500 
L 594 4494 
L 1172 4494 
z
" transform="scale(0.015625)"/>
       <path id="DejaVuSans-69" d="M 603 3500 
L 1178 3500 
L 1178 0 
L 603 0 
L 603 3500 
z
M 603 4863 
L 1178 4863 
L 1178 4134 
L 603 4134 
L 603 4863 
z
" transform="scale(0.015625)"/>
       <path id="DejaVuSans-28" d="M 1984 4856 
Q 1566 4138 1362 3434 
Q 1159 2731 1159 2009 
Q 1159 1288 1364 580 
Q 1569 -128 1984 -844 
L 1484 -844 
Q 1016 -109 783 600 
Q 550 1309 550 2009 
Q 550 2706 781 3412 
Q 1013 4119 1484 4856 
L 1984 4856 
z
" transform="scale(0.015625)"/>
       <path id="DejaVuSans-63" d="M 3122 3366 
L 3122 2828 
Q 2878 2963 2633 3030 
Q 2388 3097 2138 3097 
Q 1578 3097 1268 2742 
Q 959 2388 959 1747 
Q 959 1106 1268 751 
Q 1578 397 2138 397 
Q 2388 397 2633 464 
Q 2878 531 3122 666 
L 3122 134 
Q 2881 22 2623 -34 
Q 2366 -91 2075 -91 
Q 1284 -91 818 406 
Q 353 903 353 1747 
Q 353 2603 823 3093 
Q 1294 3584 2113 3584 
Q 2378 3584 2631 3529 
Q 2884 3475 3122 3366 
z
" transform="scale(0.015625)"/>
       <path id="DejaVuSans-2c" d="M 750 794 
L 1409 794 
L 1409 256 
L 897 -744 
L 494 -744 
L 750 256 
L 750 794 
z
" transform="scale(0.015625)"/>
       <path id="DejaVuSans-61" d="M 2194 1759 
Q 1497 1759 1228 1600 
Q 959 1441 959 1056 
Q 959 750 1161 570 
Q 1363 391 1709 391 
Q 2188 391 2477 730 
Q 2766 1069 2766 1631 
L 2766 1759 
L 2194 1759 
z
M 3341 1997 
L 3341 0 
L 2766 0 
L 2766 531 
Q 2569 213 2275 61 
Q 1981 -91 1556 -91 
Q 1019 -91 701 211 
Q 384 513 384 1019 
Q 384 1609 779 1909 
Q 1175 2209 1959 2209 
L 2766 2209 
L 2766 2266 
Q 2766 2663 2505 2880 
Q 2244 3097 1772 3097 
Q 1472 3097 1187 3025 
Q 903 2953 641 2809 
L 641 3341 
Q 956 3463 1253 3523 
Q 1550 3584 1831 3584 
Q 2591 3584 2966 3190 
Q 3341 2797 3341 1997 
z
" transform="scale(0.015625)"/>
       <path id="DejaVuSans-6c" d="M 603 4863 
L 1178 4863 
L 1178 0 
L 603 0 
L 603 4863 
z
" transform="scale(0.015625)"/>
       <path id="DejaVuSans-62" d="M 3116 1747 
Q 3116 2381 2855 2742 
Q 2594 3103 2138 3103 
Q 1681 3103 1420 2742 
Q 1159 2381 1159 1747 
Q 1159 1113 1420 752 
Q 1681 391 2138 391 
Q 2594 391 2855 752 
Q 3116 1113 3116 1747 
z
M 1159 2969 
Q 1341 3281 1617 3432 
Q 1894 3584 2278 3584 
Q 2916 3584 3314 3078 
Q 3713 2572 3713 1747 
Q 3713 922 3314 415 
Q 2916 -91 2278 -91 
Q 1894 -91 1617 61 
Q 1341 213 1159 525 
L 1159 0 
L 581 0 
L 581 4863 
L 1159 4863 
L 1159 2969 
z
" transform="scale(0.015625)"/>
       <path id="DejaVuSans-29" d="M 513 4856 
L 1013 4856 
Q 1481 4119 1714 3412 
Q 1947 2706 1947 2009 
Q 1947 1309 1714 600 
Q 1481 -109 1013 -844 
L 513 -844 
Q 928 -128 1133 580 
Q 1338 1288 1338 2009 
Q 1338 2731 1133 3434 
Q 928 4138 513 4856 
z
" transform="scale(0.015625)"/>
      </defs>
      <use xlink:href="#DejaVuSans-43"/>
      <use xlink:href="#DejaVuSans-6f" x="69.824219"/>
      <use xlink:href="#DejaVuSans-6d" x="131.005859"/>
      <use xlink:href="#DejaVuSans-70" x="228.417969"/>
      <use xlink:href="#DejaVuSans-72" x="291.894531"/>
      <use xlink:href="#DejaVuSans-65" x="330.757812"/>
      <use xlink:href="#DejaVuSans-73" x="392.28125"/>
      <use xlink:href="#DejaVuSans-73" x="444.380859"/>
      <use xlink:href="#DejaVuSans-20" x="496.480469"/>
      <use xlink:href="#DejaVuSans-74" x="528.267578"/>
      <use xlink:href="#DejaVuSans-69" x="567.476562"/>
      <use xlink:href="#DejaVuSans-6d" x="595.259766"/>
      <use xlink:href="#DejaVuSans-65" x="692.671875"/>
      <use xlink:href="#DejaVuSans-20" x="754.195312"/>
      <use xlink:href="#DejaVuSans-28" x="785.982422"/>
      <use xlink:href="#DejaVuSans-73" x="824.996094"/>
      <use xlink:href="#DejaVuSans-65" x="877.095703"/>
      <use xlink:href="#DejaVuSans-63" x="938.619141"/>
      <use xlink:href="#DejaVuSans-2c" x="993.599609"/>
      <use xlink:href="#DejaVuSans-20" x="1025.386719"/>
      <use xlink:href="#DejaVuSans-73" x="1057.173828"/>
      <use xlink:href="#DejaVuSans-6d" x="1109.273438"/>
      <use xlink:href="#DejaVuSans-61" x="1206.685547"/>
      <use xlink:href="#DejaVuSans-6c" x="1267.964844"/>
      <use xlink:href="#DejaVuSans-6c" x="1295.748047"/>
      <use xlink:href="#DejaVuSans-65" x="1323.53125"/>
      <use xlink:href="#DejaVuSans-72" x="1385.054688"/>
      <use xlink:href="#DejaVuSans-20" x="1426.167969"/>
      <use xlink:href="#DejaVuSans-69" x="1457.955078"/>
      <use xlink:href="#DejaVuSans-73" x="1485.738281"/>
      <use xlink:href="#DejaVuSans-20" x="1537.837891"/>
      <use xlink:href="#DejaVuSans-62" x="1569.625"/>
      <use xlink:href="#DejaVuSans-65" x="1633.101562"/>
      <use xlink:href="#DejaVuSans-74" x="1694.625"/>
      <use xlink:href="#DejaVuSans-74" x="1733.833984"/>
      <use xlink:href="#DejaVuSans-65" x="1773.042969"/>
      <use xlink:href="#DejaVuSans-72" x="1834.566406"/>
      <use xlink:href="#DejaVuSans-29" x="1875.679688"/>
     </g>
    </g>
   </g>
   <g id="matplotlib.axis_2">
    <g id="ytick_1">
     <g id="line2d_9">
      <defs>
       <path id="md960a37ee4" d="M 0 0 
L -3.5 0 
" style="stroke: #000000; stroke-width: 0.8"/>
      </defs>
      <g>
       <use xlink:href="#md960a37ee4" x="57.6" y="299.978166" style="stroke: #000000; stroke-width: 0.8"/>
      </g>
     </g>
     <g id="text_10">
      <!-- 0 -->
      <g transform="translate(44.2375 303.777385) scale(0.1 -0.1)">
       <use xlink:href="#DejaVuSans-30"/>
      </g>
     </g>
    </g>
    <g id="ytick_2">
     <g id="line2d_10">
      <g>
       <use xlink:href="#md960a37ee4" x="57.6" y="264.375832" style="stroke: #000000; stroke-width: 0.8"/>
      </g>
     </g>
     <g id="text_11">
      <!-- 10 -->
      <g transform="translate(37.875 268.175051) scale(0.1 -0.1)">
       <use xlink:href="#DejaVuSans-31"/>
       <use xlink:href="#DejaVuSans-30" x="63.623047"/>
      </g>
     </g>
    </g>
    <g id="ytick_3">
     <g id="line2d_11">
      <g>
       <use xlink:href="#md960a37ee4" x="57.6" y="228.773497" style="stroke: #000000; stroke-width: 0.8"/>
      </g>
     </g>
     <g id="text_12">
      <!-- 20 -->
      <g transform="translate(37.875 232.572716) scale(0.1 -0.1)">
       <use xlink:href="#DejaVuSans-32"/>
       <use xlink:href="#DejaVuSans-30" x="63.623047"/>
      </g>
     </g>
    </g>
    <g id="ytick_4">
     <g id="line2d_12">
      <g>
       <use xlink:href="#md960a37ee4" x="57.6" y="193.171163" style="stroke: #000000; stroke-width: 0.8"/>
      </g>
     </g>
     <g id="text_13">
      <!-- 30 -->
      <g transform="translate(37.875 196.970381) scale(0.1 -0.1)">
       <use xlink:href="#DejaVuSans-33"/>
       <use xlink:href="#DejaVuSans-30" x="63.623047"/>
      </g>
     </g>
    </g>
    <g id="ytick_5">
     <g id="line2d_13">
      <g>
       <use xlink:href="#md960a37ee4" x="57.6" y="157.568828" style="stroke: #000000; stroke-width: 0.8"/>
      </g>
     </g>
     <g id="text_14">
      <!-- 40 -->
      <g transform="translate(37.875 161.368047) scale(0.1 -0.1)">
       <use xlink:href="#DejaVuSans-34"/>
       <use xlink:href="#DejaVuSans-30" x="63.623047"/>
      </g>
     </g>
    </g>
    <g id="ytick_6">
     <g id="line2d_14">
      <g>
       <use xlink:href="#md960a37ee4" x="57.6" y="121.966493" style="stroke: #000000; stroke-width: 0.8"/>
      </g>
     </g>
     <g id="text_15">
      <!-- 50 -->
      <g transform="translate(37.875 125.765712) scale(0.1 -0.1)">
       <use xlink:href="#DejaVuSans-35"/>
       <use xlink:href="#DejaVuSans-30" x="63.623047"/>
      </g>
     </g>
    </g>
    <g id="ytick_7">
     <g id="line2d_15">
      <g>
       <use xlink:href="#md960a37ee4" x="57.6" y="86.364159" style="stroke: #000000; stroke-width: 0.8"/>
      </g>
     </g>
     <g id="text_16">
      <!-- 60 -->
      <g transform="translate(37.875 90.163377) scale(0.1 -0.1)">
       <use xlink:href="#DejaVuSans-36"/>
       <use xlink:href="#DejaVuSans-30" x="63.623047"/>
      </g>
     </g>
    </g>
    <g id="ytick_8">
     <g id="line2d_16">
      <g>
       <use xlink:href="#md960a37ee4" x="57.6" y="50.761824" style="stroke: #000000; stroke-width: 0.8"/>
      </g>
     </g>
     <g id="text_17">
      <!-- 70 -->
      <g transform="translate(37.875 54.561043) scale(0.1 -0.1)">
       <use xlink:href="#DejaVuSans-37"/>
       <use xlink:href="#DejaVuSans-30" x="63.623047"/>
      </g>
     </g>
    </g>
    <g id="text_18">
     <!-- Compress ratio (%, higher is better) -->
     <g transform="translate(31.795312 264.39675) rotate(-90) scale(0.1 -0.1)">
      <defs>
       <path id="DejaVuSans-25" d="M 4653 2053 
Q 4381 2053 4226 1822 
Q 4072 1591 4072 1178 
Q 4072 772 4226 539 
Q 4381 306 4653 306 
Q 4919 306 5073 539 
Q 5228 772 5228 1178 
Q 5228 1588 5073 1820 
Q 4919 2053 4653 2053 
z
M 4653 2450 
Q 5147 2450 5437 2106 
Q 5728 1763 5728 1178 
Q 5728 594 5436 251 
Q 5144 -91 4653 -91 
Q 4153 -91 3862 251 
Q 3572 594 3572 1178 
Q 3572 1766 3864 2108 
Q 4156 2450 4653 2450 
z
M 1428 4353 
Q 1159 4353 1004 4120 
Q 850 3888 850 3481 
Q 850 3069 1003 2837 
Q 1156 2606 1428 2606 
Q 1700 2606 1854 2837 
Q 2009 3069 2009 3481 
Q 2009 3884 1853 4118 
Q 1697 4353 1428 4353 
z
M 4250 4750 
L 4750 4750 
L 1831 -91 
L 1331 -91 
L 4250 4750 
z
M 1428 4750 
Q 1922 4750 2215 4408 
Q 2509 4066 2509 3481 
Q 2509 2891 2217 2550 
Q 1925 2209 1428 2209 
Q 931 2209 642 2551 
Q 353 2894 353 3481 
Q 353 4063 643 4406 
Q 934 4750 1428 4750 
z
" transform="scale(0.015625)"/>
       <path id="DejaVuSans-68" d="M 3513 2113 
L 3513 0 
L 2938 0 
L 2938 2094 
Q 2938 2591 2744 2837 
Q 2550 3084 2163 3084 
Q 1697 3084 1428 2787 
Q 1159 2491 1159 1978 
L 1159 0 
L 581 0 
L 581 4863 
L 1159 4863 
L 1159 2956 
Q 1366 3272 1645 3428 
Q 1925 3584 2291 3584 
Q 2894 3584 3203 3211 
Q 3513 2838 3513 2113 
z
" transform="scale(0.015625)"/>
       <path id="DejaVuSans-67" d="M 2906 1791 
Q 2906 2416 2648 2759 
Q 2391 3103 1925 3103 
Q 1463 3103 1205 2759 
Q 947 2416 947 1791 
Q 947 1169 1205 825 
Q 1463 481 1925 481 
Q 2391 481 2648 825 
Q 2906 1169 2906 1791 
z
M 3481 434 
Q 3481 -459 3084 -895 
Q 2688 -1331 1869 -1331 
Q 1566 -1331 1297 -1286 
Q 1028 -1241 775 -1147 
L 775 -588 
Q 1028 -725 1275 -790 
Q 1522 -856 1778 -856 
Q 2344 -856 2625 -561 
Q 2906 -266 2906 331 
L 2906 616 
Q 2728 306 2450 153 
Q 2172 0 1784 0 
Q 1141 0 747 490 
Q 353 981 353 1791 
Q 353 2603 747 3093 
Q 1141 3584 1784 3584 
Q 2172 3584 2450 3431 
Q 2728 3278 2906 2969 
L 2906 3500 
L 3481 3500 
L 3481 434 
z
" transform="scale(0.015625)"/>
      </defs>
      <use xlink:href="#DejaVuSans-43"/>
      <use xlink:href="#DejaVuSans-6f" x="69.824219"/>
      <use xlink:href="#DejaVuSans-6d" x="131.005859"/>
      <use xlink:href="#DejaVuSans-70" x="228.417969"/>
      <use xlink:href="#DejaVuSans-72" x="291.894531"/>
      <use xlink:href="#DejaVuSans-65" x="330.757812"/>
      <use xlink:href="#DejaVuSans-73" x="392.28125"/>
      <use xlink:href="#DejaVuSans-73" x="444.380859"/>
      <use xlink:href="#DejaVuSans-20" x="496.480469"/>
      <use xlink:href="#DejaVuSans-72" x="528.267578"/>
      <use xlink:href="#DejaVuSans-61" x="569.380859"/>
      <use xlink:href="#DejaVuSans-74" x="630.660156"/>
      <use xlink:href="#DejaVuSans-69" x="669.869141"/>
      <use xlink:href="#DejaVuSans-6f" x="697.652344"/>
      <use xlink:href="#DejaVuSans-20" x="758.833984"/>
      <use xlink:href="#DejaVuSans-28" x="790.621094"/>
      <use xlink:href="#DejaVuSans-25" x="829.634766"/>
      <use xlink:href="#DejaVuSans-2c" x="924.654297"/>
      <use xlink:href="#DejaVuSans-20" x="956.441406"/>
      <use xlink:href="#DejaVuSans-68" x="988.228516"/>
      <use xlink:href="#DejaVuSans-69" x="1051.607422"/>
      <use xlink:href="#DejaVuSans-67" x="1079.390625"/>
      <use xlink:href="#DejaVuSans-68" x="1142.867188"/>
      <use xlink:href="#DejaVuSans-65" x="1206.246094"/>
      <use xlink:href="#DejaVuSans-72" x="1267.769531"/>
      <use xlink:href="#DejaVuSans-20" x="1308.882812"/>
      <use xlink:href="#DejaVuSans-69" x="1340.669922"/>
      <use xlink:href="#DejaVuSans-73" x="1368.453125"/>
      <use xlink:href="#DejaVuSans-20" x="1420.552734"/>
      <use xlink:href="#DejaVuSans-62" x="1452.339844"/>
      <use xlink:href="#DejaVuSans-65" x="1515.816406"/>
      <use xlink:href="#DejaVuSans-74" x="1577.339844"/>
      <use xlink:href="#DejaVuSans-74" x="1616.548828"/>
      <use xlink:href="#DejaVuSans-65" x="1655.757812"/>
      <use xlink:href="#DejaVuSans-72" x="1717.28125"/>
      <use xlink:href="#DejaVuSans-29" x="1758.394531"/>
     </g>
    </g>
   </g>
   <g id="patch_3">
    <path d="M 57.6 307.584 
L 57.6 41.472 
" style="fill: none; stroke: #000000; stroke-width: 0.8; stroke-linejoin: miter; stroke-linecap: square"/>
   </g>
   <g id="patch_4">
    <path d="M 414.72 307.584 
L 414.72 41.472 
" style="fill: none; stroke: #000000; stroke-width: 0.8; stroke-linejoin: miter; stroke-linecap: square"/>
   </g>
   <g id="patch_5">
    <path d="M 57.6 307.584 
L 414.72 307.584 
" style="fill: none; stroke: #000000; stroke-width: 0.8; stroke-linejoin: miter; stroke-linecap: square"/>
   </g>
   <g id="patch_6">
    <path d="M 57.6 41.472 
L 414.72 41.472 
" style="fill: none; stroke: #000000; stroke-width: 0.8; stroke-linejoin: miter; stroke-linecap: square"/>
   </g>
   <g id="legend_1">
    <g id="patch_7">
     <path d="M 254.009063 210.931375 
L 407.72 210.931375 
Q 409.72 210.931375 409.72 208.931375 
L 409.72 48.472 
Q 409.72 46.472 407.72 46.472 
L 254.009063 46.472 
Q 252.009063 46.472 252.009063 48.472 
L 252.009063 208.931375 
Q 252.009063 210.931375 254.009063 210.931375 
z
" style="fill: #ffffff; opacity: 0.8; stroke: #cccccc; stroke-linejoin: miter"/>
    </g>
    <g id="text_19">
     <!-- Approach -->
     <g transform="translate(307.111406 58.070437) scale(0.1 -0.1)">
      <defs>
       <path id="DejaVuSans-41" d="M 2188 4044 
L 1331 1722 
L 3047 1722 
L 2188 4044 
z
M 1831 4666 
L 2547 4666 
L 4325 0 
L 3669 0 
L 3244 1197 
L 1141 1197 
L 716 0 
L 50 0 
L 1831 4666 
z
" transform="scale(0.015625)"/>
      </defs>
      <use xlink:href="#DejaVuSans-41"/>
      <use xlink:href="#DejaVuSans-70" x="68.408203"/>
      <use xlink:href="#DejaVuSans-70" x="131.884766"/>
      <use xlink:href="#DejaVuSans-72" x="195.361328"/>
      <use xlink:href="#DejaVuSans-6f" x="234.224609"/>
      <use xlink:href="#DejaVuSans-61" x="295.40625"/>
      <use xlink:href="#DejaVuSans-63" x="356.685547"/>
      <use xlink:href="#DejaVuSans-68" x="411.666016"/>
     </g>
    </g>
    <g id="PathCollection_12">
     <defs>
      <path id="me78d52e333" d="M 0 3 
C 0.795609 3 1.55874 2.683901 2.12132 2.12132 
C 2.683901 1.55874 3 0.795609 3 0 
C 3 -0.795609 2.683901 -1.55874 2.12132 -2.12132 
C 1.55874 -2.683901 0.795609 -3 0 -3 
C -0.795609 -3 -1.55874 -2.683901 -2.12132 -2.12132 
C -2.683901 -1.55874 -3 -0.795609 -3 0 
C -3 0.795609 -2.683901 1.55874 -2.12132 2.12132 
C -1.55874 2.683901 -0.795609 3 0 3 
z
" style="stroke: #1f77b4"/>
     </defs>
     <g>
      <use xlink:href="#me78d52e333" x="266.009063" y="70.123562" style="fill: #1f77b4; stroke: #1f77b4"/>
     </g>
    </g>
    <g id="text_20">
     <!-- lz4: Record:  -->
     <g transform="translate(284.009063 72.748562) scale(0.1 -0.1)">
      <defs>
       <path id="DejaVuSans-7a" d="M 353 3500 
L 3084 3500 
L 3084 2975 
L 922 459 
L 3084 459 
L 3084 0 
L 275 0 
L 275 525 
L 2438 3041 
L 353 3041 
L 353 3500 
z
" transform="scale(0.015625)"/>
       <path id="DejaVuSans-3a" d="M 750 794 
L 1409 794 
L 1409 0 
L 750 0 
L 750 794 
z
M 750 3309 
L 1409 3309 
L 1409 2516 
L 750 2516 
L 750 3309 
z
" transform="scale(0.015625)"/>
       <path id="DejaVuSans-52" d="M 2841 2188 
Q 3044 2119 3236 1894 
Q 3428 1669 3622 1275 
L 4263 0 
L 3584 0 
L 2988 1197 
Q 2756 1666 2539 1819 
Q 2322 1972 1947 1972 
L 1259 1972 
L 1259 0 
L 628 0 
L 628 4666 
L 2053 4666 
Q 2853 4666 3247 4331 
Q 3641 3997 3641 3322 
Q 3641 2881 3436 2590 
Q 3231 2300 2841 2188 
z
M 1259 4147 
L 1259 2491 
L 2053 2491 
Q 2509 2491 2742 2702 
Q 2975 2913 2975 3322 
Q 2975 3731 2742 3939 
Q 2509 4147 2053 4147 
L 1259 4147 
z
" transform="scale(0.015625)"/>
       <path id="DejaVuSans-64" d="M 2906 2969 
L 2906 4863 
L 3481 4863 
L 3481 0 
L 2906 0 
L 2906 525 
Q 2725 213 2448 61 
Q 2172 -91 1784 -91 
Q 1150 -91 751 415 
Q 353 922 353 1747 
Q 353 2572 751 3078 
Q 1150 3584 1784 3584 
Q 2172 3584 2448 3432 
Q 2725 3281 2906 2969 
z
M 947 1747 
Q 947 1113 1208 752 
Q 1469 391 1925 391 
Q 2381 391 2643 752 
Q 2906 1113 2906 1747 
Q 2906 2381 2643 2742 
Q 2381 3103 1925 3103 
Q 1469 3103 1208 2742 
Q 947 2381 947 1747 
z
" transform="scale(0.015625)"/>
      </defs>
      <use xlink:href="#DejaVuSans-6c"/>
      <use xlink:href="#DejaVuSans-7a" x="27.783203"/>
      <use xlink:href="#DejaVuSans-34" x="80.273438"/>
      <use xlink:href="#DejaVuSans-3a" x="143.896484"/>
      <use xlink:href="#DejaVuSans-20" x="177.587891"/>
      <use xlink:href="#DejaVuSans-52" x="209.375"/>
      <use xlink:href="#DejaVuSans-65" x="274.357422"/>
      <use xlink:href="#DejaVuSans-63" x="335.880859"/>
      <use xlink:href="#DejaVuSans-6f" x="390.861328"/>
      <use xlink:href="#DejaVuSans-72" x="452.042969"/>
      <use xlink:href="#DejaVuSans-64" x="491.40625"/>
      <use xlink:href="#DejaVuSans-3a" x="554.882812"/>
      <use xlink:href="#DejaVuSans-20" x="588.574219"/>
     </g>
    </g>
    <g id="PathCollection_13">
     <defs>
      <path id="m273aad8e42" d="M 0 3 
C 0.795609 3 1.55874 2.683901 2.12132 2.12132 
C 2.683901 1.55874 3 0.795609 3 0 
C 3 -0.795609 2.683901 -1.55874 2.12132 -2.12132 
C 1.55874 -2.683901 0.795609 -3 0 -3 
C -0.795609 -3 -1.55874 -2.683901 -2.12132 -2.12132 
C -2.683901 -1.55874 -3 -0.795609 -3 0 
C -3 0.795609 -2.683901 1.55874 -2.12132 2.12132 
C -1.55874 2.683901 -0.795609 3 0 3 
z
" style="stroke: #ff7f0e"/>
     </defs>
     <g>
      <use xlink:href="#m273aad8e42" x="266.009063" y="84.801688" style="fill: #ff7f0e; stroke: #ff7f0e"/>
     </g>
    </g>
    <g id="text_21">
     <!-- lz4: Record: Sort -->
     <g transform="translate(284.009063 87.426688) scale(0.1 -0.1)">
      <defs>
       <path id="DejaVuSans-53" d="M 3425 4513 
L 3425 3897 
Q 3066 4069 2747 4153 
Q 2428 4238 2131 4238 
Q 1616 4238 1336 4038 
Q 1056 3838 1056 3469 
Q 1056 3159 1242 3001 
Q 1428 2844 1947 2747 
L 2328 2669 
Q 3034 2534 3370 2195 
Q 3706 1856 3706 1288 
Q 3706 609 3251 259 
Q 2797 -91 1919 -91 
Q 1588 -91 1214 -16 
Q 841 59 441 206 
L 441 856 
Q 825 641 1194 531 
Q 1563 422 1919 422 
Q 2459 422 2753 634 
Q 3047 847 3047 1241 
Q 3047 1584 2836 1778 
Q 2625 1972 2144 2069 
L 1759 2144 
Q 1053 2284 737 2584 
Q 422 2884 422 3419 
Q 422 4038 858 4394 
Q 1294 4750 2059 4750 
Q 2388 4750 2728 4690 
Q 3069 4631 3425 4513 
z
" transform="scale(0.015625)"/>
      </defs>
      <use xlink:href="#DejaVuSans-6c"/>
      <use xlink:href="#DejaVuSans-7a" x="27.783203"/>
      <use xlink:href="#DejaVuSans-34" x="80.273438"/>
      <use xlink:href="#DejaVuSans-3a" x="143.896484"/>
      <use xlink:href="#DejaVuSans-20" x="177.587891"/>
      <use xlink:href="#DejaVuSans-52" x="209.375"/>
      <use xlink:href="#DejaVuSans-65" x="274.357422"/>
      <use xlink:href="#DejaVuSans-63" x="335.880859"/>
      <use xlink:href="#DejaVuSans-6f" x="390.861328"/>
      <use xlink:href="#DejaVuSans-72" x="452.042969"/>
      <use xlink:href="#DejaVuSans-64" x="491.40625"/>
      <use xlink:href="#DejaVuSans-3a" x="554.882812"/>
      <use xlink:href="#DejaVuSans-20" x="588.574219"/>
      <use xlink:href="#DejaVuSans-53" x="620.361328"/>
      <use xlink:href="#DejaVuSans-6f" x="683.837891"/>
      <use xlink:href="#DejaVuSans-72" x="745.019531"/>
      <use xlink:href="#DejaVuSans-74" x="786.132812"/>
     </g>
    </g>
    <g id="PathCollection_14">
     <defs>
      <path id="m455ee1dc43" d="M 0 3 
C 0.795609 3 1.55874 2.683901 2.12132 2.12132 
C 2.683901 1.55874 3 0.795609 3 0 
C 3 -0.795609 2.683901 -1.55874 2.12132 -2.12132 
C 1.55874 -2.683901 0.795609 -3 0 -3 
C -0.795609 -3 -1.55874 -2.683901 -2.12132 -2.12132 
C -2.683901 -1.55874 -3 -0.795609 -3 0 
C -3 0.795609 -2.683901 1.55874 -2.12132 2.12132 
C -1.55874 2.683901 -0.795609 3 0 3 
z
" style="stroke: #2ca02c"/>
     </defs>
     <g>
      <use xlink:href="#m455ee1dc43" x="266.009063" y="99.479813" style="fill: #2ca02c; stroke: #2ca02c"/>
     </g>
    </g>
    <g id="text_22">
     <!-- lz4: Record: MinShift -->
     <g transform="translate(284.009063 102.104813) scale(0.1 -0.1)">
      <defs>
       <path id="DejaVuSans-4d" d="M 628 4666 
L 1569 4666 
L 2759 1491 
L 3956 4666 
L 4897 4666 
L 4897 0 
L 4281 0 
L 4281 4097 
L 3078 897 
L 2444 897 
L 1241 4097 
L 1241 0 
L 628 0 
L 628 4666 
z
" transform="scale(0.015625)"/>
       <path id="DejaVuSans-6e" d="M 3513 2113 
L 3513 0 
L 2938 0 
L 2938 2094 
Q 2938 2591 2744 2837 
Q 2550 3084 2163 3084 
Q 1697 3084 1428 2787 
Q 1159 2491 1159 1978 
L 1159 0 
L 581 0 
L 581 3500 
L 1159 3500 
L 1159 2956 
Q 1366 3272 1645 3428 
Q 1925 3584 2291 3584 
Q 2894 3584 3203 3211 
Q 3513 2838 3513 2113 
z
" transform="scale(0.015625)"/>
       <path id="DejaVuSans-66" d="M 2375 4863 
L 2375 4384 
L 1825 4384 
Q 1516 4384 1395 4259 
Q 1275 4134 1275 3809 
L 1275 3500 
L 2222 3500 
L 2222 3053 
L 1275 3053 
L 1275 0 
L 697 0 
L 697 3053 
L 147 3053 
L 147 3500 
L 697 3500 
L 697 3744 
Q 697 4328 969 4595 
Q 1241 4863 1831 4863 
L 2375 4863 
z
" transform="scale(0.015625)"/>
      </defs>
      <use xlink:href="#DejaVuSans-6c"/>
      <use xlink:href="#DejaVuSans-7a" x="27.783203"/>
      <use xlink:href="#DejaVuSans-34" x="80.273438"/>
      <use xlink:href="#DejaVuSans-3a" x="143.896484"/>
      <use xlink:href="#DejaVuSans-20" x="177.587891"/>
      <use xlink:href="#DejaVuSans-52" x="209.375"/>
      <use xlink:href="#DejaVuSans-65" x="274.357422"/>
      <use xlink:href="#DejaVuSans-63" x="335.880859"/>
      <use xlink:href="#DejaVuSans-6f" x="390.861328"/>
      <use xlink:href="#DejaVuSans-72" x="452.042969"/>
      <use xlink:href="#DejaVuSans-64" x="491.40625"/>
      <use xlink:href="#DejaVuSans-3a" x="554.882812"/>
      <use xlink:href="#DejaVuSans-20" x="588.574219"/>
      <use xlink:href="#DejaVuSans-4d" x="620.361328"/>
      <use xlink:href="#DejaVuSans-69" x="706.640625"/>
      <use xlink:href="#DejaVuSans-6e" x="734.423828"/>
      <use xlink:href="#DejaVuSans-53" x="797.802734"/>
      <use xlink:href="#DejaVuSans-68" x="861.279297"/>
      <use xlink:href="#DejaVuSans-69" x="924.658203"/>
      <use xlink:href="#DejaVuSans-66" x="952.441406"/>
      <use xlink:href="#DejaVuSans-74" x="985.896484"/>
     </g>
    </g>
    <g id="PathCollection_15">
     <defs>
      <path id="m75fca8c615" d="M 0 3 
C 0.795609 3 1.55874 2.683901 2.12132 2.12132 
C 2.683901 1.55874 3 0.795609 3 0 
C 3 -0.795609 2.683901 -1.55874 2.12132 -2.12132 
C 1.55874 -2.683901 0.795609 -3 0 -3 
C -0.795609 -3 -1.55874 -2.683901 -2.12132 -2.12132 
C -2.683901 -1.55874 -3 -0.795609 -3 0 
C -3 0.795609 -2.683901 1.55874 -2.12132 2.12132 
C -1.55874 2.683901 -0.795609 3 0 3 
z
" style="stroke: #d62728"/>
     </defs>
     <g>
      <use xlink:href="#m75fca8c615" x="266.009063" y="114.157938" style="fill: #d62728; stroke: #d62728"/>
     </g>
    </g>
    <g id="text_23">
     <!-- lz4: Record: Normalize -->
     <g transform="translate(284.009063 116.782938) scale(0.1 -0.1)">
      <defs>
       <path id="DejaVuSans-4e" d="M 628 4666 
L 1478 4666 
L 3547 763 
L 3547 4666 
L 4159 4666 
L 4159 0 
L 3309 0 
L 1241 3903 
L 1241 0 
L 628 0 
L 628 4666 
z
" transform="scale(0.015625)"/>
      </defs>
      <use xlink:href="#DejaVuSans-6c"/>
      <use xlink:href="#DejaVuSans-7a" x="27.783203"/>
      <use xlink:href="#DejaVuSans-34" x="80.273438"/>
      <use xlink:href="#DejaVuSans-3a" x="143.896484"/>
      <use xlink:href="#DejaVuSans-20" x="177.587891"/>
      <use xlink:href="#DejaVuSans-52" x="209.375"/>
      <use xlink:href="#DejaVuSans-65" x="274.357422"/>
      <use xlink:href="#DejaVuSans-63" x="335.880859"/>
      <use xlink:href="#DejaVuSans-6f" x="390.861328"/>
      <use xlink:href="#DejaVuSans-72" x="452.042969"/>
      <use xlink:href="#DejaVuSans-64" x="491.40625"/>
      <use xlink:href="#DejaVuSans-3a" x="554.882812"/>
      <use xlink:href="#DejaVuSans-20" x="588.574219"/>
      <use xlink:href="#DejaVuSans-4e" x="620.361328"/>
      <use xlink:href="#DejaVuSans-6f" x="695.166016"/>
      <use xlink:href="#DejaVuSans-72" x="756.347656"/>
      <use xlink:href="#DejaVuSans-6d" x="795.710938"/>
      <use xlink:href="#DejaVuSans-61" x="893.123047"/>
      <use xlink:href="#DejaVuSans-6c" x="954.402344"/>
      <use xlink:href="#DejaVuSans-69" x="982.185547"/>
      <use xlink:href="#DejaVuSans-7a" x="1009.96875"/>
      <use xlink:href="#DejaVuSans-65" x="1062.458984"/>
     </g>
    </g>
    <g id="PathCollection_16">
     <defs>
      <path id="m57baaa8bcf" d="M 0 3 
C 0.795609 3 1.55874 2.683901 2.12132 2.12132 
C 2.683901 1.55874 3 0.795609 3 0 
C 3 -0.795609 2.683901 -1.55874 2.12132 -2.12132 
C 1.55874 -2.683901 0.795609 -3 0 -3 
C -0.795609 -3 -1.55874 -2.683901 -2.12132 -2.12132 
C -2.683901 -1.55874 -3 -0.795609 -3 0 
C -3 0.795609 -2.683901 1.55874 -2.12132 2.12132 
C -1.55874 2.683901 -0.795609 3 0 3 
z
" style="stroke: #9467bd"/>
     </defs>
     <g>
      <use xlink:href="#m57baaa8bcf" x="266.009063" y="128.836063" style="fill: #9467bd; stroke: #9467bd"/>
     </g>
    </g>
    <g id="text_24">
     <!-- lz4: Record: Standardize -->
     <g transform="translate(284.009063 131.461063) scale(0.1 -0.1)">
      <use xlink:href="#DejaVuSans-6c"/>
      <use xlink:href="#DejaVuSans-7a" x="27.783203"/>
      <use xlink:href="#DejaVuSans-34" x="80.273438"/>
      <use xlink:href="#DejaVuSans-3a" x="143.896484"/>
      <use xlink:href="#DejaVuSans-20" x="177.587891"/>
      <use xlink:href="#DejaVuSans-52" x="209.375"/>
      <use xlink:href="#DejaVuSans-65" x="274.357422"/>
      <use xlink:href="#DejaVuSans-63" x="335.880859"/>
      <use xlink:href="#DejaVuSans-6f" x="390.861328"/>
      <use xlink:href="#DejaVuSans-72" x="452.042969"/>
      <use xlink:href="#DejaVuSans-64" x="491.40625"/>
      <use xlink:href="#DejaVuSans-3a" x="554.882812"/>
      <use xlink:href="#DejaVuSans-20" x="588.574219"/>
      <use xlink:href="#DejaVuSans-53" x="620.361328"/>
      <use xlink:href="#DejaVuSans-74" x="683.837891"/>
      <use xlink:href="#DejaVuSans-61" x="723.046875"/>
      <use xlink:href="#DejaVuSans-6e" x="784.326172"/>
      <use xlink:href="#DejaVuSans-64" x="847.705078"/>
      <use xlink:href="#DejaVuSans-61" x="911.181641"/>
      <use xlink:href="#DejaVuSans-72" x="972.460938"/>
      <use xlink:href="#DejaVuSans-64" x="1011.824219"/>
      <use xlink:href="#DejaVuSans-69" x="1075.300781"/>
      <use xlink:href="#DejaVuSans-7a" x="1103.083984"/>
      <use xlink:href="#DejaVuSans-65" x="1155.574219"/>
     </g>
    </g>
    <g id="PathCollection_17">
     <defs>
      <path id="m81a2d3b1f4" d="M 0 3 
C 0.795609 3 1.55874 2.683901 2.12132 2.12132 
C 2.683901 1.55874 3 0.795609 3 0 
C 3 -0.795609 2.683901 -1.55874 2.12132 -2.12132 
C 1.55874 -2.683901 0.795609 -3 0 -3 
C -0.795609 -3 -1.55874 -2.683901 -2.12132 -2.12132 
C -2.683901 -1.55874 -3 -0.795609 -3 0 
C -3 0.795609 -2.683901 1.55874 -2.12132 2.12132 
C -1.55874 2.683901 -0.795609 3 0 3 
z
" style="stroke: #8c564b"/>
     </defs>
     <g>
      <use xlink:href="#m81a2d3b1f4" x="266.009063" y="143.514187" style="fill: #8c564b; stroke: #8c564b"/>
     </g>
    </g>
    <g id="text_25">
     <!-- lz4: All:  -->
     <g transform="translate(284.009063 146.139187) scale(0.1 -0.1)">
      <use xlink:href="#DejaVuSans-6c"/>
      <use xlink:href="#DejaVuSans-7a" x="27.783203"/>
      <use xlink:href="#DejaVuSans-34" x="80.273438"/>
      <use xlink:href="#DejaVuSans-3a" x="143.896484"/>
      <use xlink:href="#DejaVuSans-20" x="177.587891"/>
      <use xlink:href="#DejaVuSans-41" x="209.375"/>
      <use xlink:href="#DejaVuSans-6c" x="277.783203"/>
      <use xlink:href="#DejaVuSans-6c" x="305.566406"/>
      <use xlink:href="#DejaVuSans-3a" x="333.349609"/>
      <use xlink:href="#DejaVuSans-20" x="367.041016"/>
     </g>
    </g>
    <g id="PathCollection_18">
     <defs>
      <path id="m8791df6b51" d="M 0 3 
C 0.795609 3 1.55874 2.683901 2.12132 2.12132 
C 2.683901 1.55874 3 0.795609 3 0 
C 3 -0.795609 2.683901 -1.55874 2.12132 -2.12132 
C 1.55874 -2.683901 0.795609 -3 0 -3 
C -0.795609 -3 -1.55874 -2.683901 -2.12132 -2.12132 
C -2.683901 -1.55874 -3 -0.795609 -3 0 
C -3 0.795609 -2.683901 1.55874 -2.12132 2.12132 
C -1.55874 2.683901 -0.795609 3 0 3 
z
" style="stroke: #e377c2"/>
     </defs>
     <g>
      <use xlink:href="#m8791df6b51" x="266.009063" y="158.192313" style="fill: #e377c2; stroke: #e377c2"/>
     </g>
    </g>
    <g id="text_26">
     <!-- lz4: All: Sort -->
     <g transform="translate(284.009063 160.817313) scale(0.1 -0.1)">
      <use xlink:href="#DejaVuSans-6c"/>
      <use xlink:href="#DejaVuSans-7a" x="27.783203"/>
      <use xlink:href="#DejaVuSans-34" x="80.273438"/>
      <use xlink:href="#DejaVuSans-3a" x="143.896484"/>
      <use xlink:href="#DejaVuSans-20" x="177.587891"/>
      <use xlink:href="#DejaVuSans-41" x="209.375"/>
      <use xlink:href="#DejaVuSans-6c" x="277.783203"/>
      <use xlink:href="#DejaVuSans-6c" x="305.566406"/>
      <use xlink:href="#DejaVuSans-3a" x="333.349609"/>
      <use xlink:href="#DejaVuSans-20" x="367.041016"/>
      <use xlink:href="#DejaVuSans-53" x="398.828125"/>
      <use xlink:href="#DejaVuSans-6f" x="462.304688"/>
      <use xlink:href="#DejaVuSans-72" x="523.486328"/>
      <use xlink:href="#DejaVuSans-74" x="564.599609"/>
     </g>
    </g>
    <g id="PathCollection_19">
     <defs>
      <path id="m5f7e6f2446" d="M 0 3 
C 0.795609 3 1.55874 2.683901 2.12132 2.12132 
C 2.683901 1.55874 3 0.795609 3 0 
C 3 -0.795609 2.683901 -1.55874 2.12132 -2.12132 
C 1.55874 -2.683901 0.795609 -3 0 -3 
C -0.795609 -3 -1.55874 -2.683901 -2.12132 -2.12132 
C -2.683901 -1.55874 -3 -0.795609 -3 0 
C -3 0.795609 -2.683901 1.55874 -2.12132 2.12132 
C -1.55874 2.683901 -0.795609 3 0 3 
z
" style="stroke: #7f7f7f"/>
     </defs>
     <g>
      <use xlink:href="#m5f7e6f2446" x="266.009063" y="172.870437" style="fill: #7f7f7f; stroke: #7f7f7f"/>
     </g>
    </g>
    <g id="text_27">
     <!-- lz4: All: MinShift -->
     <g transform="translate(284.009063 175.495437) scale(0.1 -0.1)">
      <use xlink:href="#DejaVuSans-6c"/>
      <use xlink:href="#DejaVuSans-7a" x="27.783203"/>
      <use xlink:href="#DejaVuSans-34" x="80.273438"/>
      <use xlink:href="#DejaVuSans-3a" x="143.896484"/>
      <use xlink:href="#DejaVuSans-20" x="177.587891"/>
      <use xlink:href="#DejaVuSans-41" x="209.375"/>
      <use xlink:href="#DejaVuSans-6c" x="277.783203"/>
      <use xlink:href="#DejaVuSans-6c" x="305.566406"/>
      <use xlink:href="#DejaVuSans-3a" x="333.349609"/>
      <use xlink:href="#DejaVuSans-20" x="367.041016"/>
      <use xlink:href="#DejaVuSans-4d" x="398.828125"/>
      <use xlink:href="#DejaVuSans-69" x="485.107422"/>
      <use xlink:href="#DejaVuSans-6e" x="512.890625"/>
      <use xlink:href="#DejaVuSans-53" x="576.269531"/>
      <use xlink:href="#DejaVuSans-68" x="639.746094"/>
      <use xlink:href="#DejaVuSans-69" x="703.125"/>
      <use xlink:href="#DejaVuSans-66" x="730.908203"/>
      <use xlink:href="#DejaVuSans-74" x="764.363281"/>
     </g>
    </g>
    <g id="PathCollection_20">
     <defs>
      <path id="m605b2449e4" d="M 0 3 
C 0.795609 3 1.55874 2.683901 2.12132 2.12132 
C 2.683901 1.55874 3 0.795609 3 0 
C 3 -0.795609 2.683901 -1.55874 2.12132 -2.12132 
C 1.55874 -2.683901 0.795609 -3 0 -3 
C -0.795609 -3 -1.55874 -2.683901 -2.12132 -2.12132 
C -2.683901 -1.55874 -3 -0.795609 -3 0 
C -3 0.795609 -2.683901 1.55874 -2.12132 2.12132 
C -1.55874 2.683901 -0.795609 3 0 3 
z
" style="stroke: #bcbd22"/>
     </defs>
     <g>
      <use xlink:href="#m605b2449e4" x="266.009063" y="187.548563" style="fill: #bcbd22; stroke: #bcbd22"/>
     </g>
    </g>
    <g id="text_28">
     <!-- lz4: All: Normalize -->
     <g transform="translate(284.009063 190.173563) scale(0.1 -0.1)">
      <use xlink:href="#DejaVuSans-6c"/>
      <use xlink:href="#DejaVuSans-7a" x="27.783203"/>
      <use xlink:href="#DejaVuSans-34" x="80.273438"/>
      <use xlink:href="#DejaVuSans-3a" x="143.896484"/>
      <use xlink:href="#DejaVuSans-20" x="177.587891"/>
      <use xlink:href="#DejaVuSans-41" x="209.375"/>
      <use xlink:href="#DejaVuSans-6c" x="277.783203"/>
      <use xlink:href="#DejaVuSans-6c" x="305.566406"/>
      <use xlink:href="#DejaVuSans-3a" x="333.349609"/>
      <use xlink:href="#DejaVuSans-20" x="367.041016"/>
      <use xlink:href="#DejaVuSans-4e" x="398.828125"/>
      <use xlink:href="#DejaVuSans-6f" x="473.632812"/>
      <use xlink:href="#DejaVuSans-72" x="534.814453"/>
      <use xlink:href="#DejaVuSans-6d" x="574.177734"/>
      <use xlink:href="#DejaVuSans-61" x="671.589844"/>
      <use xlink:href="#DejaVuSans-6c" x="732.869141"/>
      <use xlink:href="#DejaVuSans-69" x="760.652344"/>
      <use xlink:href="#DejaVuSans-7a" x="788.435547"/>
      <use xlink:href="#DejaVuSans-65" x="840.925781"/>
     </g>
    </g>
    <g id="PathCollection_21">
     <defs>
      <path id="m34511ad479" d="M 0 3 
C 0.795609 3 1.55874 2.683901 2.12132 2.12132 
C 2.683901 1.55874 3 0.795609 3 0 
C 3 -0.795609 2.683901 -1.55874 2.12132 -2.12132 
C 1.55874 -2.683901 0.795609 -3 0 -3 
C -0.795609 -3 -1.55874 -2.683901 -2.12132 -2.12132 
C -2.683901 -1.55874 -3 -0.795609 -3 0 
C -3 0.795609 -2.683901 1.55874 -2.12132 2.12132 
C -1.55874 2.683901 -0.795609 3 0 3 
z
" style="stroke: #17becf"/>
     </defs>
     <g>
      <use xlink:href="#m34511ad479" x="266.009063" y="202.226687" style="fill: #17becf; stroke: #17becf"/>
     </g>
    </g>
    <g id="text_29">
     <!-- lz4: All: Standardize -->
     <g transform="translate(284.009063 204.851687) scale(0.1 -0.1)">
      <use xlink:href="#DejaVuSans-6c"/>
      <use xlink:href="#DejaVuSans-7a" x="27.783203"/>
      <use xlink:href="#DejaVuSans-34" x="80.273438"/>
      <use xlink:href="#DejaVuSans-3a" x="143.896484"/>
      <use xlink:href="#DejaVuSans-20" x="177.587891"/>
      <use xlink:href="#DejaVuSans-41" x="209.375"/>
      <use xlink:href="#DejaVuSans-6c" x="277.783203"/>
      <use xlink:href="#DejaVuSans-6c" x="305.566406"/>
      <use xlink:href="#DejaVuSans-3a" x="333.349609"/>
      <use xlink:href="#DejaVuSans-20" x="367.041016"/>
      <use xlink:href="#DejaVuSans-53" x="398.828125"/>
      <use xlink:href="#DejaVuSans-74" x="462.304688"/>
      <use xlink:href="#DejaVuSans-61" x="501.513672"/>
      <use xlink:href="#DejaVuSans-6e" x="562.792969"/>
      <use xlink:href="#DejaVuSans-64" x="626.171875"/>
      <use xlink:href="#DejaVuSans-61" x="689.648438"/>
      <use xlink:href="#DejaVuSans-72" x="750.927734"/>
      <use xlink:href="#DejaVuSans-64" x="790.291016"/>
      <use xlink:href="#DejaVuSans-69" x="853.767578"/>
      <use xlink:href="#DejaVuSans-7a" x="881.550781"/>
      <use xlink:href="#DejaVuSans-65" x="934.041016"/>
     </g>
    </g>
   </g>
  </g>
 </g>
 <defs>
  <clipPath id="pdc83748d13">
   <rect x="57.6" y="41.472" width="357.12" height="266.112"/>
  </clipPath>
 </defs>
</svg>
